<?xml version="1.0"?><svg width="640" height="480" xmlns="http://www.w3.org/2000/svg" xmlns:xlink="http://www.w3.org/1999/xlink">
 <title>fork and spoon cross</title>
 <metadata id="metadata13950">image/svg+xml</metadata>
 <g>
  <title>Layer 1</title>
  <a xlink:href="http://rangerfork.com" id="svg_12">
   <g id="layer1">
    <g id="svg_9">
     <path d="m-1.725006,265.097809c-33.858978,0 -33.858978,-42.322601 0,-42.322601l389.367004,8.464493c25.394012,0 25.394012,-42.322495 59.251984,-42.322495l203.14801,4.232193c12.697021,0 12.697021,12.696808 0,12.696808l-169.289978,0c-16.929016,0 -16.929016,16.929001 0,16.929001l169.289978,0c12.697021,0 12.697021,12.696808 0,12.696808l-181.987,0c-16.928986,0 -16.928986,16.929077 0,16.929077l181.987,0c12.697021,0 12.697021,12.696716 0,12.696716l-169.289978,0c-16.929016,0 -16.929016,16.929199 0,16.929199l169.289978,0c12.697021,0 12.697021,12.696991 0,12.696991l-203.14801,4.231995c-33.857971,0 -33.857971,-42.322693 -59.251984,-42.322693l-389.367004,8.464508z" transform="rotate(-36.35689926147461 313.8372192382811,243.93659973144534) " stroke-width="0" stroke="black" fill-rule="evenodd" fill="#f94d2f" id="svg_10"/>
     <path d="m641.784973,274.709503c33.858032,0 33.858032,-42.322601 0,-42.322601l-397.832092,8.464493c-25.3936,0 -33.858109,-25.3936 -67.716202,-42.322601c-50.787109,-25.393555 -148.128693,4.232208 -169.29071,25.3936c-21.16098,21.161316 -21.16098,38.090302 0,59.251617c21.162018,21.16098 118.503601,50.786987 169.29071,25.393982c33.858093,-16.929993 42.322601,-42.32309 67.716202,-42.32309l397.832092,8.4646l0,0z" transform="rotate(36.141700744628906 329.1268615722657,253.54820251464844) " stroke-width="0" stroke="black" fill-rule="evenodd" fill="#f94d2f" id="svg_11"/>
    </g>
   </g>
  </a>
 </g>
</svg>